<?xml version="1.0" encoding="iso-8859-1"?>
<!-- Generator: Adobe Illustrator 16.0.0, SVG Export Plug-In . SVG Version: 6.00 Build 0)  -->
<!DOCTYPE svg PUBLIC "-//W3C//DTD SVG 1.1//EN" "http://www.w3.org/Graphics/SVG/1.1/DTD/svg11.dtd">
<svg version="1.1" id="Ebene_1" xmlns="http://www.w3.org/2000/svg" xmlns:xlink="http://www.w3.org/1999/xlink" x="0px" y="0px"
	 width="180px" height="63px" viewBox="0 0 180 63" enable-background="new 0 0 180 63" xml:space="preserve">
<g>
	<rect x="8" y="9" fill="#FFFFFF" width="165" height="48"/>
	<g>
		<path fill="#7C8285" d="M23.537,15.894h3.408c0.223,0,0.404-0.184,0.404-0.396c0-0.228-0.182-0.409-0.404-0.409h-3.408
			c-0.217,0-0.402,0.182-0.402,0.409C23.135,15.709,23.32,15.894,23.537,15.894z M25.24,45.761c-0.977,0-1.771,0.798-1.771,1.776
			c0,0.977,0.795,1.772,1.771,1.772c0.979,0,1.775-0.795,1.775-1.772C27.016,46.559,26.219,45.761,25.24,45.761z M16.545,44.243
			h17.393V18.518H16.545V44.243z M72.314,35.793c-0.824,0-1.57,0.273-2.242,0.819c-0.674,0.556-1.109,1.272-1.318,2.16
			c-0.1,0.416-0.15,0.754-0.15,1.022v2.506c0,1.096,0.328,2.022,1.004,2.775c0.668,0.747,1.543,1.125,2.613,1.125
			c1.256,0,2.244-0.48,2.945-1.455c0.701-0.97,1.051-2.248,1.051-3.842c0-1.462-0.328-2.672-0.988-3.619
			C74.502,36.299,73.531,35.793,72.314,35.793z M133.312,35.586c-1.338,0-2.361,0.596-3.059,1.79
			c-0.605,0.984-0.902,2.186-0.902,3.606c0,1.384,0.295,2.564,0.902,3.553c0.715,1.192,1.727,1.788,3.035,1.788
			c1.27,0,2.275-0.602,2.994-1.825c0.623-1,0.936-2.197,0.936-3.574c0-1.377-0.301-2.564-0.896-3.548
			C135.611,36.182,134.613,35.586,133.312,35.586z M88.852,35.793c-0.83,0-1.57,0.273-2.242,0.819
			c-0.672,0.556-1.111,1.272-1.32,2.16c-0.104,0.416-0.152,0.754-0.152,1.022v2.506c0,1.096,0.33,2.022,1.004,2.775
			c0.672,0.747,1.545,1.125,2.613,1.125c1.264,0,2.246-0.48,2.947-1.455c0.703-0.97,1.057-2.248,1.057-3.842
			c0-1.462-0.334-2.672-0.992-3.619C91.039,36.299,90.066,35.793,88.852,35.793z M54.297,30.411h-0.061
			c-0.207,0.888-0.535,2.196-0.994,3.934l-1.734,5.449h5.605l-1.76-5.449C55.164,33.783,54.809,32.473,54.297,30.411z
			 M158.674,35.422c-1.092,0-1.979,0.467-2.66,1.369c-0.559,0.72-0.893,1.589-0.992,2.595h6.967c0.016-0.988-0.193-1.84-0.648-2.568
			C160.76,35.896,159.871,35.422,158.674,35.422z M69.045,20.572c0.045-0.144,0.045-0.287,0.045-0.431v-1.065
			c-1.385-0.014-2.705,0.269-2.705,1.447c0,0.765,0.492,1.116,1.113,1.116C68.293,21.64,68.854,21.13,69.045,20.572z M50.797,15.701
			c-0.209-0.652-0.383-1.385-0.543-2.004h-0.035c-0.158,0.619-0.332,1.367-0.508,2.004l-0.824,2.644h2.752L50.797,15.701z
			 M172.213,0.084H7.426c-4.193,0-7.605,3.413-7.605,7.607v47.355c0,4.189,3.412,7.597,7.605,7.597h164.787
			c4.193,0,7.607-3.407,7.607-7.597V7.691C179.82,3.497,176.406,0.084,172.213,0.084z M161.762,14.938
			c2.514,0,3.344,2.068,3.344,3.771c0,0.366-0.033,0.655-0.064,0.829h-5.189c0.047,1.4,1.131,2.005,2.387,2.005
			c0.906,0,1.545-0.143,2.148-0.351l0.287,1.337c-0.67,0.287-1.592,0.493-2.707,0.493c-2.514,0-3.994-1.542-3.994-3.912
			C157.975,16.959,159.277,14.938,161.762,14.938z M130.697,15.112l0.096,1.164h0.049c0.348-0.606,1.191-1.338,2.482-1.338
			c1.352,0,2.754,0.875,2.754,3.325v4.602h-1.959v-4.378c0-1.113-0.412-1.957-1.48-1.957c-0.777,0-1.32,0.557-1.529,1.147
			c-0.062,0.157-0.094,0.396-0.094,0.62v4.567h-1.957v-5.442c0-0.893-0.033-1.64-0.064-2.31H130.697z M110.139,14.938
			c2.516,0,3.346,2.068,3.346,3.771c0,0.366-0.033,0.655-0.066,0.829h-5.188c0.045,1.4,1.129,2.005,2.387,2.005
			c0.906,0,1.543-0.143,2.148-0.351l0.285,1.337c-0.668,0.287-1.59,0.493-2.705,0.493c-2.516,0-3.994-1.542-3.994-3.912
			C106.354,16.959,107.656,14.938,110.139,14.938z M102.117,11.564h1.955v11.3h-1.955V11.564z M86.592,16.321
			c-0.764,0-1.559,0.24-2.086,0.574l-0.383-1.274c0.574-0.349,1.576-0.684,2.801-0.684c2.484,0,3.201,1.577,3.201,3.277V21
			c0,0.701,0.031,1.385,0.125,1.864h-1.766l-0.143-0.86h-0.047c-0.463,0.604-1.275,1.038-2.293,1.038
			c-1.561,0-2.436-1.134-2.436-2.309c0-1.942,1.734-2.947,4.6-2.93v-0.126C88.166,17.166,87.959,16.321,86.592,16.321z
			 M75.016,11.883c0.67,0,1.082,0.462,1.098,1.066c0,0.572-0.43,1.051-1.115,1.051c-0.652,0-1.08-0.479-1.08-1.051
			C73.918,12.345,74.361,11.883,75.016,11.883z M75.986,15.112v7.752h-1.957v-7.752H75.986z M49.059,12.137h2.5l3.484,10.728h-2.117
			l-0.969-3.042h-3.391l-0.926,3.042h-2.02L49.059,12.137z M36.023,47.709c0,1.888-1.543,3.421-3.432,3.421H17.893
			c-1.891,0-3.432-1.533-3.432-3.421V15.042c0-1.889,1.539-3.426,3.432-3.426h14.699c1.889,0,3.432,1.535,3.432,3.426V47.709
			L36.023,47.709z M59.652,48.492l-1.949-6.125h-6.781l-1.859,6.125h-3.465l6.713-20.868h4.152l6.754,20.868H59.652z M60.414,22.864
			h-1.928l-2.881-7.751h2.117l1.256,3.931c0.223,0.684,0.383,1.305,0.527,1.944h0.047c0.145-0.639,0.318-1.246,0.527-1.944
			l1.24-3.931h2.055L60.414,22.864z M64.443,20.732c0-1.942,1.734-2.947,4.602-2.93v-0.126c0-0.511-0.209-1.355-1.578-1.355
			c-0.764,0-1.559,0.24-2.084,0.574L65,15.621c0.572-0.349,1.574-0.684,2.801-0.684c2.482,0,3.199,1.577,3.199,3.277V21
			c0,0.701,0.033,1.385,0.129,1.864h-1.77l-0.141-0.86H69.17c-0.461,0.604-1.273,1.038-2.293,1.038
			C65.318,23.042,64.443,21.908,64.443,20.732z M77.537,46.856c-1.244,1.316-2.793,1.978-4.639,1.978
			c-1.998,0-3.428-0.712-4.297-2.14v7.901h-3.34V38.389c0-1.608-0.045-3.256-0.129-4.946h2.941l0.184,2.384h0.059
			c1.121-1.792,2.812-2.686,5.086-2.686c1.773,0,3.252,0.695,4.445,2.102c1.184,1.401,1.779,3.255,1.779,5.54
			C79.627,43.354,78.932,45.367,77.537,46.856z M81.018,22.864h-1.957v-11.3h1.957V22.864z M94.068,46.856
			c-1.244,1.316-2.789,1.978-4.637,1.978c-1.992,0-3.424-0.712-4.293-2.14v7.901h-3.346V38.389c0-1.608-0.043-3.256-0.123-4.946
			h2.934l0.193,2.384h0.057c1.123-1.792,2.811-2.686,5.08-2.686c1.775,0,3.26,0.695,4.445,2.102c1.188,1.401,1.781,3.255,1.781,5.54
			C96.16,43.354,95.465,45.367,94.068,46.856z M96.365,23.042c-1.002,0-1.895-0.383-2.449-1.338h-0.033l-0.096,1.161h-1.67
			c0.031-0.526,0.062-1.384,0.062-2.183v-9.117h1.957v4.614h0.031c0.479-0.747,1.322-1.24,2.484-1.24
			c1.895,0,3.246,1.576,3.23,3.931C99.883,21.656,98.119,23.042,96.365,23.042z M113.197,46.974
			c-1.365,1.219-3.258,1.825-5.686,1.825c-2.25,0-4.051-0.435-5.408-1.297l0.775-2.787c1.465,0.863,3.074,1.299,4.826,1.299
			c1.264,0,2.242-0.287,2.943-0.85c0.699-0.564,1.051-1.322,1.051-2.283c0-0.836-0.291-1.549-0.865-2.131
			c-0.584-0.577-1.535-1.111-2.879-1.609c-3.648-1.358-5.479-3.352-5.479-5.973c0-1.712,0.639-3.12,1.932-4.213
			c1.291-1.091,2.996-1.639,5.127-1.639c1.896,0,3.477,0.332,4.74,0.987l-0.846,2.728c-1.178-0.64-2.514-0.963-4.006-0.963
			c-1.178,0-2.102,0.298-2.768,0.863c-0.555,0.524-0.834,1.154-0.834,1.895c0,0.821,0.32,1.503,0.959,2.049
			c0.559,0.491,1.57,1.027,3.029,1.604c1.803,0.717,3.119,1.567,3.971,2.542c0.844,0.97,1.268,2.175,1.268,3.617
			C115.049,44.416,114.43,45.865,113.197,46.974z M124.986,35.949h-3.689v7.317c0,1.855,0.656,2.776,1.957,2.776
			c0.598,0,1.09-0.044,1.482-0.145l0.096,2.532c-0.662,0.248-1.523,0.372-2.6,0.372c-1.314,0-2.354-0.396-3.094-1.207
			c-0.75-0.802-1.121-2.156-1.121-4.055v-7.591h-2.195v-2.506h2.195v-2.754l3.279-0.991v3.745h3.691v2.507H124.986z M123.102,23.042
			c-2.182,0-3.885-1.498-3.885-3.997c0-2.546,1.672-4.107,4.012-4.107c2.309,0,3.854,1.624,3.854,3.98
			C127.082,21.767,125.074,23.042,123.102,23.042z M138.707,46.547c-1.389,1.523-3.225,2.287-5.512,2.287
			c-2.213,0-3.979-0.732-5.285-2.197c-1.311-1.464-1.963-3.318-1.963-5.544c0-2.33,0.674-4.243,2.025-5.727
			c1.355-1.49,3.172-2.224,5.463-2.224c2.217,0,3.99,0.726,5.332,2.199c1.277,1.416,1.918,3.257,1.918,5.506
			C140.684,43.164,140.027,45.056,138.707,46.547z M142.162,15.112h1.1v-1.448l1.926-0.543v1.991h1.861v1.465h-1.861v3.421
			c0,0.958,0.254,1.434,1.002,1.434c0.35,0,0.539-0.016,0.764-0.08l0.031,1.48c-0.287,0.11-0.812,0.209-1.416,0.209
			c-0.73,0-1.322-0.241-1.688-0.639c-0.428-0.445-0.619-1.161-0.619-2.182v-3.644h-1.1V15.112L142.162,15.112z M150.744,36.385
			c-0.328-0.06-0.682-0.086-1.051-0.086c-1.176,0-2.082,0.444-2.725,1.329c-0.559,0.787-0.836,1.764-0.836,2.968v7.896h-3.346
			V38.177c0-1.724-0.029-3.303-0.088-4.734h2.908l0.127,2.882h0.092c0.348-0.989,0.902-1.785,1.672-2.379
			c0.742-0.543,1.551-0.804,2.416-0.804c0.309,0,0.588,0.017,0.834,0.056v3.188H150.744z M151.252,18.215v4.649h-1.955v-11.3h1.955
			v4.6h0.031c0.24-0.365,0.576-0.667,0.973-0.875c0.398-0.225,0.859-0.351,1.354-0.351c1.322,0,2.707,0.876,2.707,3.358v4.567
			h-1.959v-4.36c0-1.115-0.414-1.975-1.494-1.975c-0.766,0-1.307,0.51-1.529,1.098C151.27,17.803,151.252,18.009,151.252,18.215z
			 M165.055,41.78h-10.033c0.039,1.485,0.525,2.615,1.457,3.398c0.844,0.704,1.936,1.056,3.279,1.056
			c1.49,0,2.838-0.237,4.057-0.719l0.527,2.327c-1.418,0.624-3.105,0.925-5.051,0.925c-2.328,0-4.16-0.682-5.492-2.055
			c-1.33-1.37-2-3.214-2-5.525c0-2.273,0.621-4.159,1.857-5.672c1.307-1.608,3.061-2.41,5.266-2.41c2.172,0,3.811,0.802,4.924,2.41
			c0.885,1.283,1.33,2.865,1.33,4.745C165.178,40.855,165.135,41.36,165.055,41.78z M95.938,16.466
			c-0.797,0-1.529,0.573-1.736,1.432c-0.033,0.143-0.064,0.316-0.064,0.508v1.259c0,0.157,0.018,0.317,0.049,0.46
			c0.207,0.794,0.891,1.371,1.736,1.371c1.225,0,1.971-0.974,1.971-2.548C97.893,17.582,97.242,16.466,95.938,16.466z
			 M110.027,16.276c-1.209,0-1.719,1.098-1.797,1.892h3.406C111.65,17.453,111.334,16.276,110.027,16.276z M123.182,16.355
			c-1.385,0-1.943,1.35-1.943,2.64c0,1.497,0.748,2.626,1.928,2.626c1.113,0,1.893-1.082,1.893-2.656
			C125.059,17.756,124.518,16.355,123.182,16.355z M85.508,20.523c0,0.766,0.494,1.116,1.113,1.116c0.797,0,1.354-0.509,1.545-1.067
			c0.049-0.144,0.049-0.288,0.049-0.431v-1.066C86.83,19.062,85.508,19.348,85.508,20.523z M161.65,16.276
			c-1.209,0-1.719,1.098-1.799,1.892h3.404C163.273,17.453,162.955,16.276,161.65,16.276z"/>
	</g>
</g>
</svg>
