<?xml version="1.0" encoding="iso-8859-1"?>
<!-- Generator: Adobe Illustrator 16.0.0, SVG Export Plug-In . SVG Version: 6.00 Build 0)  -->
<!DOCTYPE svg PUBLIC "-//W3C//DTD SVG 1.1//EN" "http://www.w3.org/Graphics/SVG/1.1/DTD/svg11.dtd">
<svg version="1.1" id="Ebene_1" xmlns="http://www.w3.org/2000/svg" xmlns:xlink="http://www.w3.org/1999/xlink" x="0px" y="0px"
	 width="180px" height="63px" viewBox="0 0 180 63" enable-background="new 0 0 180 63" xml:space="preserve">
<g>
	<rect x="8" y="9" fill="#FFFFFF" width="165" height="48"/>
	<g>
		<path fill="#90969A" d="M23.717,16.03h3.408c0.223,0,0.404-0.184,0.404-0.396c0-0.228-0.182-0.409-0.404-0.409h-3.408
			c-0.217,0-0.402,0.182-0.402,0.409C23.314,15.846,23.5,16.03,23.717,16.03z M25.42,45.897c-0.977,0-1.771,0.798-1.771,1.776
			c0,0.977,0.795,1.772,1.771,1.772c0.979,0,1.775-0.795,1.775-1.772C27.195,46.695,26.398,45.897,25.42,45.897z M16.725,44.379
			h17.393V18.654H16.725V44.379z M72.494,35.93c-0.824,0-1.57,0.273-2.242,0.819c-0.674,0.556-1.109,1.272-1.318,2.16
			c-0.1,0.416-0.15,0.754-0.15,1.022v2.506c0,1.096,0.328,2.022,1.004,2.775c0.668,0.747,1.543,1.125,2.613,1.125
			c1.256,0,2.244-0.48,2.945-1.455c0.701-0.97,1.051-2.248,1.051-3.842c0-1.462-0.328-2.672-0.988-3.619
			C74.682,36.435,73.711,35.93,72.494,35.93z M133.492,35.722c-1.338,0-2.361,0.596-3.059,1.79
			c-0.605,0.984-0.902,2.186-0.902,3.606c0,1.384,0.295,2.564,0.902,3.553c0.715,1.192,1.727,1.788,3.035,1.788
			c1.27,0,2.275-0.602,2.994-1.825c0.623-1,0.936-2.197,0.936-3.574c0-1.377-0.301-2.564-0.896-3.548
			C135.791,36.318,134.793,35.722,133.492,35.722z M89.031,35.93c-0.83,0-1.57,0.273-2.242,0.819
			c-0.672,0.556-1.111,1.272-1.32,2.16c-0.104,0.416-0.152,0.754-0.152,1.022v2.506c0,1.096,0.33,2.022,1.004,2.775
			c0.672,0.747,1.545,1.125,2.613,1.125c1.264,0,2.246-0.48,2.947-1.455c0.703-0.97,1.057-2.248,1.057-3.842
			c0-1.462-0.334-2.672-0.992-3.619C91.219,36.435,90.246,35.93,89.031,35.93z M54.477,30.547h-0.061
			c-0.207,0.888-0.535,2.196-0.994,3.934l-1.734,5.449h5.605l-1.76-5.449C55.344,33.919,54.988,32.609,54.477,30.547z
			 M158.854,35.559c-1.092,0-1.979,0.467-2.66,1.369c-0.559,0.72-0.893,1.589-0.992,2.595h6.967c0.016-0.988-0.193-1.84-0.648-2.568
			C160.939,36.032,160.051,35.559,158.854,35.559z M69.225,20.708c0.045-0.144,0.045-0.287,0.045-0.431v-1.065
			c-1.385-0.014-2.705,0.269-2.705,1.447c0,0.765,0.492,1.116,1.113,1.116C68.473,21.776,69.033,21.267,69.225,20.708z
			 M50.977,15.837c-0.209-0.652-0.383-1.385-0.543-2.004h-0.035c-0.158,0.619-0.332,1.367-0.508,2.004l-0.824,2.644h2.752
			L50.977,15.837z M172.393,0.22H7.605C3.412,0.22,0,3.633,0,7.828v47.355c0,4.189,3.412,7.597,7.605,7.597h164.787
			c4.193,0,7.607-3.407,7.607-7.597V7.828C180,3.633,176.586,0.22,172.393,0.22z M161.941,15.075c2.514,0,3.344,2.068,3.344,3.771
			c0,0.366-0.033,0.655-0.064,0.829h-5.189c0.047,1.4,1.131,2.005,2.387,2.005c0.906,0,1.545-0.143,2.148-0.351l0.287,1.337
			c-0.67,0.287-1.592,0.493-2.707,0.493c-2.514,0-3.994-1.542-3.994-3.912C158.154,17.096,159.457,15.075,161.941,15.075z
			 M130.877,15.249l0.096,1.164h0.049c0.348-0.606,1.191-1.338,2.482-1.338c1.352,0,2.754,0.875,2.754,3.325V23h-1.959v-4.378
			c0-1.113-0.412-1.957-1.48-1.957c-0.777,0-1.32,0.557-1.529,1.147c-0.062,0.157-0.094,0.396-0.094,0.62V23h-1.957v-5.442
			c0-0.893-0.033-1.64-0.064-2.31H130.877z M110.318,15.075c2.516,0,3.346,2.068,3.346,3.771c0,0.366-0.033,0.655-0.066,0.829
			h-5.188c0.045,1.4,1.129,2.005,2.387,2.005c0.906,0,1.543-0.143,2.148-0.351l0.285,1.337c-0.668,0.287-1.59,0.493-2.705,0.493
			c-2.516,0-3.994-1.542-3.994-3.912C106.533,17.096,107.836,15.075,110.318,15.075z M102.297,11.701h1.955V23h-1.955V11.701z
			 M86.771,16.458c-0.764,0-1.559,0.24-2.086,0.574l-0.383-1.274c0.574-0.349,1.576-0.684,2.801-0.684
			c2.484,0,3.201,1.577,3.201,3.277v2.785c0,0.701,0.031,1.385,0.125,1.864h-1.766l-0.143-0.86h-0.047
			c-0.463,0.604-1.275,1.038-2.293,1.038c-1.561,0-2.436-1.134-2.436-2.309c0-1.942,1.734-2.947,4.6-2.93v-0.126
			C88.346,17.302,88.139,16.458,86.771,16.458z M75.195,12.019c0.67,0,1.082,0.462,1.098,1.066c0,0.572-0.43,1.051-1.115,1.051
			c-0.652,0-1.08-0.479-1.08-1.051C74.098,12.481,74.541,12.019,75.195,12.019z M76.166,15.249V23h-1.957v-7.752H76.166z
			 M49.238,12.273h2.5L55.223,23h-2.117l-0.969-3.042h-3.391L47.82,23h-2.02L49.238,12.273z M36.203,47.846
			c0,1.888-1.543,3.421-3.432,3.421H18.072c-1.891,0-3.432-1.533-3.432-3.421V15.178c0-1.889,1.539-3.426,3.432-3.426h14.699
			c1.889,0,3.432,1.535,3.432,3.426V47.846L36.203,47.846z M59.832,48.628l-1.949-6.125h-6.781l-1.859,6.125h-3.465L52.49,27.76
			h4.152l6.754,20.868H59.832z M60.594,23h-1.928l-2.881-7.751h2.117l1.256,3.931c0.223,0.684,0.383,1.305,0.527,1.944h0.047
			c0.145-0.639,0.318-1.246,0.527-1.944l1.24-3.931h2.055L60.594,23z M64.623,20.869c0-1.942,1.734-2.947,4.602-2.93v-0.126
			c0-0.511-0.209-1.355-1.578-1.355c-0.764,0-1.559,0.24-2.084,0.574l-0.383-1.274c0.572-0.349,1.574-0.684,2.801-0.684
			c2.482,0,3.199,1.577,3.199,3.277v2.785c0,0.701,0.033,1.385,0.129,1.864h-1.77l-0.141-0.86H69.35
			c-0.461,0.604-1.273,1.038-2.293,1.038C65.498,23.178,64.623,22.044,64.623,20.869z M77.717,46.993
			c-1.244,1.316-2.793,1.978-4.639,1.978c-1.998,0-3.428-0.712-4.297-2.14v7.901h-3.34V38.525c0-1.608-0.045-3.256-0.129-4.946
			h2.941l0.184,2.384h0.059c1.121-1.792,2.812-2.686,5.086-2.686c1.773,0,3.252,0.695,4.445,2.102
			c1.184,1.401,1.779,3.255,1.779,5.54C79.807,43.49,79.111,45.503,77.717,46.993z M81.197,23H79.24v-11.3h1.957V23z M94.248,46.993
			c-1.244,1.316-2.789,1.978-4.637,1.978c-1.992,0-3.424-0.712-4.293-2.14v7.901h-3.346V38.525c0-1.608-0.043-3.256-0.123-4.946
			h2.934l0.193,2.384h0.057c1.123-1.792,2.811-2.686,5.08-2.686c1.775,0,3.26,0.695,4.445,2.102c1.188,1.401,1.781,3.255,1.781,5.54
			C96.34,43.49,95.645,45.503,94.248,46.993z M96.545,23.178c-1.002,0-1.895-0.383-2.449-1.338h-0.033L93.967,23h-1.67
			c0.031-0.526,0.062-1.384,0.062-2.183v-9.117h1.957v4.614h0.031c0.479-0.747,1.322-1.24,2.484-1.24
			c1.895,0,3.246,1.576,3.23,3.931C100.062,21.792,98.299,23.178,96.545,23.178z M113.377,47.11
			c-1.365,1.219-3.258,1.825-5.686,1.825c-2.25,0-4.051-0.435-5.408-1.297l0.775-2.787c1.465,0.863,3.074,1.299,4.826,1.299
			c1.264,0,2.242-0.287,2.943-0.85c0.699-0.564,1.051-1.322,1.051-2.283c0-0.836-0.291-1.549-0.865-2.131
			c-0.584-0.577-1.535-1.111-2.879-1.609c-3.648-1.358-5.479-3.352-5.479-5.973c0-1.712,0.639-3.12,1.932-4.213
			c1.291-1.091,2.996-1.639,5.127-1.639c1.896,0,3.477,0.332,4.74,0.987l-0.846,2.728c-1.178-0.64-2.514-0.963-4.006-0.963
			c-1.178,0-2.102,0.298-2.768,0.863c-0.555,0.524-0.834,1.154-0.834,1.895c0,0.821,0.32,1.503,0.959,2.049
			c0.559,0.491,1.57,1.027,3.029,1.604c1.803,0.717,3.119,1.567,3.971,2.542c0.844,0.97,1.268,2.175,1.268,3.617
			C115.229,44.552,114.609,46.001,113.377,47.11z M125.166,36.085h-3.689v7.317c0,1.855,0.656,2.776,1.957,2.776
			c0.598,0,1.09-0.044,1.482-0.145l0.096,2.532c-0.662,0.248-1.523,0.372-2.6,0.372c-1.314,0-2.354-0.396-3.094-1.207
			c-0.75-0.802-1.121-2.156-1.121-4.055v-7.591h-2.195v-2.506h2.195v-2.754l3.279-0.991v3.745h3.691v2.507H125.166z M123.281,23.178
			c-2.182,0-3.885-1.498-3.885-3.997c0-2.546,1.672-4.107,4.012-4.107c2.309,0,3.854,1.624,3.854,3.98
			C127.262,21.903,125.254,23.178,123.281,23.178z M138.887,46.683c-1.389,1.523-3.225,2.287-5.512,2.287
			c-2.213,0-3.979-0.732-5.285-2.197c-1.311-1.464-1.963-3.318-1.963-5.544c0-2.33,0.674-4.243,2.025-5.727
			c1.355-1.49,3.172-2.224,5.463-2.224c2.217,0,3.99,0.726,5.332,2.199c1.277,1.416,1.918,3.257,1.918,5.506
			C140.863,43.3,140.207,45.192,138.887,46.683z M142.342,15.249h1.1V13.8l1.926-0.543v1.991h1.861v1.465h-1.861v3.421
			c0,0.958,0.254,1.434,1.002,1.434c0.35,0,0.539-0.016,0.764-0.08l0.031,1.48c-0.287,0.11-0.812,0.209-1.416,0.209
			c-0.73,0-1.322-0.241-1.688-0.639c-0.428-0.445-0.619-1.161-0.619-2.182v-3.644h-1.1V15.249L142.342,15.249z M150.924,36.521
			c-0.328-0.06-0.682-0.086-1.051-0.086c-1.176,0-2.082,0.444-2.725,1.329c-0.559,0.787-0.836,1.764-0.836,2.968v7.896h-3.346
			V38.313c0-1.724-0.029-3.303-0.088-4.734h2.908l0.127,2.882h0.092c0.348-0.989,0.902-1.785,1.672-2.379
			c0.742-0.543,1.551-0.804,2.416-0.804c0.309,0,0.588,0.017,0.834,0.056v3.188H150.924z M151.432,18.351V23h-1.955v-11.3h1.955v4.6
			h0.031c0.24-0.365,0.576-0.667,0.973-0.875c0.398-0.225,0.859-0.351,1.354-0.351c1.322,0,2.707,0.876,2.707,3.358V23h-1.959v-4.36
			c0-1.115-0.414-1.975-1.494-1.975c-0.766,0-1.307,0.51-1.529,1.098C151.449,17.939,151.432,18.145,151.432,18.351z
			 M165.234,41.917h-10.033c0.039,1.485,0.525,2.615,1.457,3.398c0.844,0.704,1.936,1.056,3.279,1.056
			c1.49,0,2.838-0.237,4.057-0.719l0.527,2.327c-1.418,0.624-3.105,0.925-5.051,0.925c-2.328,0-4.16-0.682-5.492-2.055
			c-1.33-1.37-2-3.214-2-5.525c0-2.273,0.621-4.159,1.857-5.672c1.307-1.608,3.061-2.41,5.266-2.41c2.172,0,3.811,0.802,4.924,2.41
			c0.885,1.283,1.33,2.865,1.33,4.745C165.357,40.992,165.314,41.497,165.234,41.917z M96.117,16.603
			c-0.797,0-1.529,0.573-1.736,1.432c-0.033,0.143-0.064,0.316-0.064,0.508v1.259c0,0.157,0.018,0.317,0.049,0.46
			c0.207,0.794,0.891,1.371,1.736,1.371c1.225,0,1.971-0.974,1.971-2.548C98.072,17.718,97.422,16.603,96.117,16.603z
			 M110.207,16.412c-1.209,0-1.719,1.098-1.797,1.892h3.406C111.83,17.589,111.514,16.412,110.207,16.412z M123.361,16.492
			c-1.385,0-1.943,1.35-1.943,2.64c0,1.497,0.748,2.626,1.928,2.626c1.113,0,1.893-1.082,1.893-2.656
			C125.238,17.893,124.697,16.492,123.361,16.492z M85.688,20.66c0,0.766,0.494,1.116,1.113,1.116c0.797,0,1.354-0.509,1.545-1.067
			c0.049-0.144,0.049-0.288,0.049-0.431v-1.066C87.01,19.198,85.688,19.484,85.688,20.66z M161.83,16.412
			c-1.209,0-1.719,1.098-1.799,1.892h3.404C163.453,17.589,163.135,16.412,161.83,16.412z"/>
	</g>
</g>
</svg>
